<svg width="36" height="37" viewBox="0 0 36 37" fill="none" xmlns="http://www.w3.org/2000/svg">
<path d="M3 30.5C3 31.2956 3.31607 32.0587 3.87868 32.6213C4.44129 33.1839 5.20435 33.5 6 33.5H30C30.7956 33.5 31.5587 33.1839 32.1213 32.6213C32.6839 32.0587 33 31.2956 33 30.5V12.5L22.5 20V12.5L12 20V6.5C12 5.70435 11.6839 4.94129 11.1213 4.37868C10.5587 3.81607 9.79565 3.5 9 3.5H6C5.20435 3.5 4.44129 3.81607 3.87868 4.37868C3.31607 4.94129 3 5.70435 3 6.5V30.5Z" stroke="#0C8CE9" stroke-width="2" stroke-linecap="round" stroke-linejoin="round"/>
<path d="M25.5 27.5H27" stroke="#0C8CE9" stroke-width="2" stroke-linecap="round" stroke-linejoin="round"/>
<path d="M18 27.5H19.5" stroke="#0C8CE9" stroke-width="2" stroke-linecap="round" stroke-linejoin="round"/>
<path d="M10.5 27.5H12" stroke="#0C8CE9" stroke-width="2" stroke-linecap="round" stroke-linejoin="round"/>
</svg>
