<svg width="19" height="18" viewBox="0 0 19 18" fill="none" xmlns="http://www.w3.org/2000/svg">
<path d="M7.70283 11.6249C7.63587 11.3654 7.50058 11.1285 7.31104 10.939C7.1215 10.7494 6.88463 10.6142 6.62508 10.5472L2.02383 9.36069C1.94533 9.33841 1.87623 9.29113 1.82704 9.22603C1.77784 9.16092 1.75122 9.08155 1.75122 8.99994C1.75122 8.91834 1.77784 8.83896 1.82704 8.77386C1.87623 8.70875 1.94533 8.66147 2.02383 8.63919L6.62508 7.45194C6.88454 7.38505 7.12135 7.24987 7.31088 7.06047C7.50041 6.87107 7.63575 6.63436 7.70283 6.37494L8.88933 1.77369C8.91138 1.69488 8.95861 1.62545 9.02382 1.57599C9.08902 1.52653 9.16861 1.49976 9.25045 1.49976C9.33229 1.49976 9.41188 1.52653 9.47709 1.57599C9.54229 1.62545 9.58952 1.69488 9.61158 1.77369L10.7973 6.37494C10.8643 6.6345 10.9996 6.87137 11.1891 7.06091C11.3787 7.25045 11.6155 7.38573 11.8751 7.45269L16.4763 8.63844C16.5555 8.66027 16.6252 8.70745 16.675 8.77275C16.7247 8.83805 16.7516 8.91786 16.7516 8.99994C16.7516 9.08202 16.7247 9.16183 16.675 9.22713C16.6252 9.29244 16.5555 9.33962 16.4763 9.36144L11.8751 10.5472C11.6155 10.6142 11.3787 10.7494 11.1891 10.939C10.9996 11.1285 10.8643 11.3654 10.7973 11.6249L9.61083 16.2262C9.58877 16.305 9.54154 16.3744 9.47634 16.4239C9.41113 16.4734 9.33154 16.5001 9.2497 16.5001C9.16786 16.5001 9.08827 16.4734 9.02307 16.4239C8.95787 16.3744 8.91063 16.305 8.88858 16.2262L7.70283 11.6249Z" stroke="white" stroke-width="1.5" stroke-linecap="round" stroke-linejoin="round"/>
<path d="M15.25 2.25V5.25" stroke="white" stroke-width="1.5" stroke-linecap="round" stroke-linejoin="round"/>
<path d="M16.75 3.75H13.75" stroke="white" stroke-width="1.5" stroke-linecap="round" stroke-linejoin="round"/>
<path d="M3.25 12.75V14.25" stroke="white" stroke-width="1.5" stroke-linecap="round" stroke-linejoin="round"/>
<path d="M4 13.5H2.5" stroke="white" stroke-width="1.5" stroke-linecap="round" stroke-linejoin="round"/>
</svg>
