<svg width="36" height="36" viewBox="0 0 36 36" fill="none" xmlns="http://www.w3.org/2000/svg">
<path d="M18 24V31.5" stroke="#0C8CE9" stroke-width="2" stroke-linecap="round" stroke-linejoin="round"/>
<path d="M24 21V31.5" stroke="#0C8CE9" stroke-width="2" stroke-linecap="round" stroke-linejoin="round"/>
<path d="M30 15V31.5" stroke="#0C8CE9" stroke-width="2" stroke-linecap="round" stroke-linejoin="round"/>
<path d="M33 4.5L20.031 17.469C19.9613 17.5388 19.8786 17.5943 19.7874 17.6321C19.6963 17.6699 19.5987 17.6893 19.5 17.6893C19.4013 17.6893 19.3037 17.6699 19.2126 17.6321C19.1214 17.5943 19.0387 17.5388 18.969 17.469L14.031 12.531C13.8904 12.3904 13.6996 12.3114 13.5007 12.3114C13.3019 12.3114 13.1111 12.3904 12.9705 12.531L3 22.5" stroke="#0C8CE9" stroke-width="2" stroke-linecap="round" stroke-linejoin="round"/>
<path d="M6 27V31.5" stroke="#0C8CE9" stroke-width="2" stroke-linecap="round" stroke-linejoin="round"/>
<path d="M12 21V31.5" stroke="#0C8CE9" stroke-width="2" stroke-linecap="round" stroke-linejoin="round"/>
</svg>
