<svg width="36" height="37" viewBox="0 0 36 37" fill="none" xmlns="http://www.w3.org/2000/svg">
<path d="M10.5 15.5V33.5" stroke="#0C8CE9" stroke-width="2" stroke-linecap="round" stroke-linejoin="round"/>
<path d="M22.5 9.32L21 15.5H29.745C30.2107 15.5 30.6701 15.6084 31.0866 15.8167C31.5032 16.025 31.8656 16.3274 32.145 16.7C32.4244 17.0726 32.6133 17.5051 32.6966 17.9633C32.7799 18.4216 32.7554 18.8929 32.625 19.34L29.13 31.34C28.9482 31.9631 28.5693 32.5105 28.05 32.9C27.5307 33.2895 26.8991 33.5 26.25 33.5H6C5.20435 33.5 4.44129 33.1839 3.87868 32.6213C3.31607 32.0587 3 31.2956 3 30.5V18.5C3 17.7044 3.31607 16.9413 3.87868 16.3787C4.44129 15.8161 5.20435 15.5 6 15.5H10.14C10.6981 15.4997 11.2451 15.3437 11.7194 15.0496C12.1938 14.7554 12.5766 14.3348 12.825 13.835L18 3.5C18.7074 3.50876 19.4036 3.67725 20.0367 3.99289C20.6698 4.30853 21.2234 4.76316 21.6561 5.3228C22.0888 5.88245 22.3895 6.53264 22.5356 7.2248C22.6817 7.91697 22.6696 8.6332 22.5 9.32Z" stroke="#0C8CE9" stroke-width="2" stroke-linecap="round" stroke-linejoin="round"/>
</svg>
