<svg width="36" height="37" viewBox="0 0 36 37" fill="none" xmlns="http://www.w3.org/2000/svg">
<path d="M25.5 21.5L25.5 3.5" stroke="#0C8CE9" stroke-width="2" stroke-linecap="round" stroke-linejoin="round"/>
<path d="M13.5 27.68L15 21.5L6.255 21.5C5.78927 21.5 5.32993 21.3916 4.91336 21.1833C4.4968 20.975 4.13444 20.6726 3.855 20.3C3.57556 19.9274 3.38671 19.4949 3.30339 19.0367C3.22008 18.5784 3.2446 18.1071 3.375 17.66L6.87 5.66C7.05175 5.03685 7.43071 4.48946 7.95 4.1C8.46929 3.71053 9.10089 3.5 9.75 3.5L30 3.5C30.7957 3.5 31.5587 3.81607 32.1213 4.37868C32.6839 4.94129 33 5.70435 33 6.5L33 18.5C33 19.2956 32.6839 20.0587 32.1213 20.6213C31.5587 21.1839 30.7957 21.5 30 21.5L25.86 21.5C25.3019 21.5003 24.7549 21.6563 24.2806 21.9504C23.8062 22.2446 23.4234 22.6652 23.175 23.165L18 33.5C17.2926 33.4912 16.5964 33.3227 15.9633 33.0071C15.3302 32.6915 14.7766 32.2368 14.3439 31.6772C13.9112 31.1176 13.6105 30.4674 13.4644 29.7752C13.3183 29.083 13.3304 28.3668 13.5 27.68Z" stroke="#0C8CE9" stroke-width="2" stroke-linecap="round" stroke-linejoin="round"/>
</svg>
