<svg width="16" height="16" viewBox="0 0 16 16" fill="none" xmlns="http://www.w3.org/2000/svg">
<path d="M10.0003 1.3335H4.00033C3.6467 1.3335 3.30756 1.47397 3.05752 1.72402C2.80747 1.97407 2.66699 2.31321 2.66699 2.66683V13.3335C2.66699 13.6871 2.80747 14.0263 3.05752 14.2763C3.30756 14.5264 3.6467 14.6668 4.00033 14.6668H12.0003C12.3539 14.6668 12.6931 14.5264 12.9431 14.2763C13.1932 14.0263 13.3337 13.6871 13.3337 13.3335V4.66683L10.0003 1.3335Z" stroke="#0C8CE9" stroke-width="1.5" stroke-linecap="round" stroke-linejoin="round"/>
<path d="M9.33301 1.3335V4.00016C9.33301 4.35378 9.47348 4.69292 9.72353 4.94297C9.97358 5.19302 10.3127 5.3335 10.6663 5.3335H13.333" stroke="#0C8CE9" stroke-width="1.5" stroke-linecap="round" stroke-linejoin="round"/>
<path d="M6.66634 8C6.48953 8 6.31996 8.07024 6.19494 8.19526C6.06991 8.32029 5.99967 8.48986 5.99967 8.66667V9.33333C5.99967 9.51014 5.92944 9.67971 5.80441 9.80474C5.67939 9.92976 5.50982 10 5.33301 10C5.50982 10 5.67939 10.0702 5.80441 10.1953C5.92944 10.3203 5.99967 10.4899 5.99967 10.6667V11.3333C5.99967 11.5101 6.06991 11.6797 6.19494 11.8047C6.31996 11.9298 6.48953 12 6.66634 12" stroke="#0C8CE9" stroke-width="1.5" stroke-linecap="round" stroke-linejoin="round"/>
<path d="M9.33301 12C9.50982 12 9.67939 11.9298 9.80441 11.8047C9.92944 11.6797 9.99967 11.5101 9.99967 11.3333V10.6667C9.99967 10.4899 10.0699 10.3203 10.1949 10.1953C10.32 10.0702 10.4895 10 10.6663 10C10.4895 10 10.32 9.92976 10.1949 9.80474C10.0699 9.67971 9.99967 9.51014 9.99967 9.33333V8.66667C9.99967 8.48986 9.92944 8.32029 9.80441 8.19526C9.67939 8.07024 9.50982 8 9.33301 8" stroke="#0C8CE9" stroke-width="1.5" stroke-linecap="round" stroke-linejoin="round"/>
</svg>
