<svg width="36" height="36" viewBox="0 0 36 36" fill="none" xmlns="http://www.w3.org/2000/svg">
<path d="M18 22.5C20.4853 22.5 22.5 20.4853 22.5 18C22.5 15.5147 20.4853 13.5 18 13.5C15.5147 13.5 13.5 15.5147 13.5 18C13.5 20.4853 15.5147 22.5 18 22.5Z" stroke="#0C8CE9" stroke-width="2" stroke-linecap="round" stroke-linejoin="round"/>
<path d="M18 24.75C18 26.085 17.6041 27.3901 16.8624 28.5001C16.1207 29.6101 15.0665 30.4753 13.8331 30.9862C12.5997 31.4971 11.2425 31.6308 9.93314 31.3703C8.62377 31.1099 7.42104 30.467 6.47703 29.523C5.53303 28.579 4.89015 27.3762 4.6297 26.0669C4.36925 24.7575 4.50292 23.4003 5.01382 22.1669C5.52471 20.9335 6.38987 19.8793 7.4999 19.1376C8.60994 18.3959 9.91498 18 11.25 18C9.91498 18 8.60994 17.6041 7.4999 16.8624C6.38987 16.1207 5.52471 15.0665 5.01382 13.8331C4.50292 12.5997 4.36925 11.2425 4.6297 9.93314C4.89015 8.62377 5.53303 7.42104 6.47703 6.47703C7.42104 5.53303 8.62377 4.89015 9.93314 4.6297C11.2425 4.36925 12.5997 4.50292 13.8331 5.01382C15.0665 5.52471 16.1207 6.38987 16.8624 7.4999C17.6041 8.60994 18 9.91498 18 11.25C18 9.91498 18.3959 8.60994 19.1376 7.4999C19.8793 6.38987 20.9335 5.52471 22.1669 5.01382C23.4003 4.50292 24.7575 4.36925 26.0669 4.6297C27.3762 4.89015 28.579 5.53303 29.523 6.47703C30.467 7.42104 31.1099 8.62377 31.3703 9.93314C31.6308 11.2425 31.4971 12.5997 30.9862 13.8331C30.4753 15.0665 29.6101 16.1207 28.5001 16.8624C27.3901 17.6041 26.085 18 24.75 18C26.085 18 27.3901 18.3959 28.5001 19.1376C29.6101 19.8793 30.4753 20.9335 30.9862 22.1669C31.4971 23.4003 31.6308 24.7575 31.3703 26.0669C31.1099 27.3762 30.467 28.579 29.523 29.523C28.579 30.467 27.3762 31.1099 26.0669 31.3703C24.7575 31.6308 23.4003 31.4971 22.1669 30.9862C20.9335 30.4753 19.8793 29.6101 19.1376 28.5001C18.3959 27.3901 18 26.085 18 24.75Z" stroke="#0C8CE9" stroke-width="2" stroke-linecap="round" stroke-linejoin="round"/>
<path d="M18 11.25V13.5" stroke="#0C8CE9" stroke-width="2" stroke-linecap="round" stroke-linejoin="round"/>
<path d="M11.25 18H13.5" stroke="#0C8CE9" stroke-width="2" stroke-linecap="round" stroke-linejoin="round"/>
<path d="M24.75 18H22.5" stroke="#0C8CE9" stroke-width="2" stroke-linecap="round" stroke-linejoin="round"/>
<path d="M18 24.75V22.5" stroke="#0C8CE9" stroke-width="2" stroke-linecap="round" stroke-linejoin="round"/>
<path d="M12 12L14.82 14.82" stroke="#0C8CE9" stroke-width="2" stroke-linecap="round" stroke-linejoin="round"/>
<path d="M21.1797 14.82L23.9997 12" stroke="#0C8CE9" stroke-width="2" stroke-linecap="round" stroke-linejoin="round"/>
<path d="M12 23.9999L14.82 21.1799" stroke="#0C8CE9" stroke-width="2" stroke-linecap="round" stroke-linejoin="round"/>
<path d="M21.1797 21.1799L23.9997 23.9999" stroke="#0C8CE9" stroke-width="2" stroke-linecap="round" stroke-linejoin="round"/>
</svg>
