<svg width="36" height="36" viewBox="0 0 36 36" fill="none" xmlns="http://www.w3.org/2000/svg">
<path d="M22.7438 33.756C22.8036 33.9052 22.9076 34.0324 23.0419 34.1207C23.1761 34.209 23.3342 34.2541 23.4948 34.25C23.6554 34.2459 23.811 34.1928 23.9405 34.0977C24.0701 34.0026 24.1674 33.8702 24.2196 33.7182L34.457 3.7934C34.5074 3.65385 34.517 3.50283 34.4847 3.358C34.4524 3.21318 34.3796 3.08055 34.2746 2.97563C34.1697 2.87071 34.0371 2.79784 33.8923 2.76555C33.7475 2.73326 33.5964 2.74288 33.4569 2.79328L3.53204 13.0307C3.38005 13.0829 3.24764 13.1802 3.15258 13.3098C3.05752 13.4393 3.00437 13.5948 3.00026 13.7555C2.99614 13.9161 3.04126 14.0741 3.12956 14.2084C3.21786 14.3426 3.34512 14.4467 3.49424 14.5065L15.9839 19.515C16.3788 19.673 16.7375 19.9094 17.0385 20.2099C17.3395 20.5104 17.5765 20.8687 17.7353 21.2632L22.7438 33.756Z" stroke="#0C8CE9" stroke-width="2" stroke-linecap="round" stroke-linejoin="round"/>
<path d="M34 3L17 20" stroke="#0C8CE9" stroke-width="2" stroke-linecap="round" stroke-linejoin="round"/>
</svg>
