<svg width="19" height="18" viewBox="0 0 19 18" fill="none" xmlns="http://www.w3.org/2000/svg">
<path d="M7.95258 11.6252C7.88562 11.3656 7.75034 11.1288 7.5608 10.9392C7.37126 10.7497 7.13439 10.6144 6.87483 10.5474L2.27358 9.36094C2.19508 9.33866 2.12599 9.29138 2.07679 9.22627C2.02759 9.16117 2.00098 9.08179 2.00098 9.00019C2.00098 8.91858 2.02759 8.83921 2.07679 8.7741C2.12599 8.709 2.19508 8.66172 2.27358 8.63944L6.87483 7.45219C7.13429 7.38529 7.3711 7.25012 7.56063 7.06072C7.75017 6.87132 7.88551 6.6346 7.95258 6.37519L9.13908 1.77394C9.16114 1.69513 9.20837 1.62569 9.27357 1.57623C9.33878 1.52677 9.41837 1.5 9.50021 1.5C9.58205 1.5 9.66164 1.52677 9.72684 1.57623C9.79204 1.62569 9.83928 1.69513 9.86133 1.77394L11.0471 6.37519C11.114 6.63474 11.2493 6.87161 11.4389 7.06115C11.6284 7.25069 11.8653 7.38598 12.1248 7.45294L16.7261 8.63869C16.8052 8.66051 16.875 8.70769 16.9247 8.77299C16.9744 8.83829 17.0014 8.91811 17.0014 9.00019C17.0014 9.08227 16.9744 9.16208 16.9247 9.22738C16.875 9.29268 16.8052 9.33986 16.7261 9.36169L12.1248 10.5474C11.8653 10.6144 11.6284 10.7497 11.4389 10.9392C11.2493 11.1288 11.114 11.3656 11.0471 11.6252L9.86058 16.2264C9.83853 16.3052 9.7913 16.3747 9.72609 16.4241C9.66089 16.4736 9.5813 16.5004 9.49946 16.5004C9.41762 16.5004 9.33803 16.4736 9.27282 16.4241C9.20762 16.3747 9.16039 16.3052 9.13833 16.2264L7.95258 11.6252Z" stroke="white" stroke-width="1.5" stroke-linecap="round" stroke-linejoin="round"/>
<path d="M15.5 2.25V5.25" stroke="white" stroke-width="1.5" stroke-linecap="round" stroke-linejoin="round"/>
<path d="M17 3.75H14" stroke="white" stroke-width="1.5" stroke-linecap="round" stroke-linejoin="round"/>
<path d="M3.5 12.75V14.25" stroke="white" stroke-width="1.5" stroke-linecap="round" stroke-linejoin="round"/>
<path d="M4.25 13.5H2.75" stroke="white" stroke-width="1.5" stroke-linecap="round" stroke-linejoin="round"/>
</svg>
