<svg width="14" height="13" viewBox="0 0 14 13" fill="none" xmlns="http://www.w3.org/2000/svg">
<path d="M6.99999 7.20799L1.75399 12.454C1.66065 12.5473 1.54599 12.5973 1.40999 12.604C1.27399 12.6107 1.15265 12.5607 1.04599 12.454C0.93932 12.3473 0.885986 12.2293 0.885986 12.1C0.885986 11.9707 0.93932 11.8527 1.04599 11.746L6.29199 6.49999L1.04599 1.25399C0.952653 1.16065 0.902653 1.04599 0.895986 0.909986C0.889319 0.773986 0.93932 0.652653 1.04599 0.545986C1.15265 0.43932 1.27065 0.385986 1.39999 0.385986C1.52932 0.385986 1.64732 0.43932 1.75399 0.545986L6.99999 5.79199L12.246 0.545986C12.3393 0.452653 12.4543 0.402653 12.591 0.395986C12.7263 0.389319 12.8473 0.43932 12.954 0.545986C13.0607 0.652653 13.114 0.770653 13.114 0.899986C13.114 1.02932 13.0607 1.14732 12.954 1.25399L7.70799 6.49999L12.954 11.746C13.0473 11.8393 13.0973 11.9543 13.104 12.091C13.1107 12.2263 13.0607 12.3473 12.954 12.454C12.8473 12.5607 12.7293 12.614 12.6 12.614C12.4707 12.614 12.3527 12.5607 12.246 12.454L6.99999 7.20799Z" fill="white"/>
</svg>
